<?xml version="1.0" standalone="no"?>
<!DOCTYPE svg PUBLIC "-//W3C//DTD SVG 20010904//EN"
 "http://www.w3.org/TR/2001/REC-SVG-20010904/DTD/svg10.dtd">
<svg version="1.0" xmlns="http://www.w3.org/2000/svg"
 width="256.000000pt" height="256.000000pt" viewBox="0 0 256.000000 256.000000"
 preserveAspectRatio="xMidYMid meet">
<metadata>
Created by potrace 1.14, written by Peter Selinger 2001-2017
</metadata>
<g transform="translate(0.000000,256.000000) scale(0.100000,-0.100000)"
fill="#000000" stroke="none">
<path d="M1469 2062 c-35 -59 -69 -116 -75 -127 -20 -38 -371 -645 -704 -1220
-166 -286 -182 -316 -177 -321 2 -2 463 -3 1024 -2 l1020 3 -275 475 c-151
261 -284 491 -295 510 -10 19 -87 152 -170 295 -83 143 -181 313 -217 377
l-67 118 -64 -108z"/>
<path d="M685 1577 c-33 -56 -68 -118 -79 -137 -10 -19 -50 -89 -89 -155 -38
-66 -79 -136 -90 -155 -10 -19 -52 -91 -92 -160 -85 -145 -249 -429 -277 -480
-11 -19 -29 -50 -40 -68 l-20 -32 168 2 168 3 53 89 c29 49 53 90 53 92 0 1
48 85 107 186 58 101 114 197 123 213 17 28 128 220 192 330 56 97 59 78 -32
234 -45 77 -83 141 -84 141 0 0 -28 -46 -61 -103z"/>
</g>
</svg>
